<svg width="24" height="24" viewBox="0 0 24 24" fill="none" xmlns="http://www.w3.org/2000/svg">
<path fill-rule="evenodd" clip-rule="evenodd" d="M12 21.2372C13.213 21.2372 14.4142 20.9983 15.5348 20.5341C16.6555 20.0699 17.6738 19.3895 18.5315 18.5317C19.3893 17.674 20.0697 16.6557 20.5339 15.535C20.9981 14.4143 21.237 13.2132 21.237 12.0002C21.237 10.7872 20.9981 9.58602 20.5339 8.46534C20.0697 7.34465 19.3893 6.32637 18.5315 5.46864C17.6738 4.6109 16.6555 3.93051 15.5348 3.46631C14.4142 3.00211 13.213 2.76318 12 2.76318C9.5502 2.76318 7.20073 3.73636 5.46846 5.46864C3.73618 7.20091 2.763 9.55038 2.763 12.0002C2.763 14.45 3.73618 16.7995 5.46846 18.5317C7.20073 20.264 9.5502 21.2372 12 21.2372ZM14.99 4.26618C15.35 4.65318 15.675 5.10418 15.96 5.60118C16.483 6.50618 16.891 7.59118 17.155 8.79118C17.5703 8.89518 17.959 9.01118 18.321 9.13918C18.989 9.37618 19.576 9.65618 20.041 9.97918C19.7162 8.69288 19.0882 7.50302 18.2095 6.5091C17.3308 5.51519 16.2268 4.74611 14.99 4.26618ZM20.161 13.4622C19.678 13.8212 19.048 14.1302 18.321 14.3872C17.989 14.5045 17.6337 14.6118 17.255 14.7092C17.001 16.1092 16.555 17.3692 15.961 18.3992C15.6881 18.879 15.3624 19.3268 14.99 19.7342C16.3174 19.2199 17.4903 18.3729 18.3959 17.2745C19.3014 16.1762 19.9093 14.8633 20.161 13.4622ZM9.011 19.7342C8.63821 19.3268 8.31218 18.8791 8.039 18.3992C7.446 17.3692 6.999 16.1092 6.745 14.7092C6.38523 14.6171 6.02957 14.5097 5.679 14.3872C4.952 14.1302 4.322 13.8212 3.839 13.4622C4.0907 14.8633 4.69855 16.1762 5.60413 17.2745C6.5097 18.3729 7.68356 19.2199 9.011 19.7342ZM3.958 9.97818C4.423 9.65618 5.01 9.37618 5.678 9.13918C6.04 9.01185 6.42867 8.89585 6.844 8.79118C7.108 7.59118 7.516 6.50618 8.038 5.60118C8.31086 5.12136 8.63656 4.67358 9.009 4.26618C7.77267 4.74628 6.66921 5.51532 5.79084 6.50903C4.91246 7.50275 4.2847 8.69227 3.96 9.97818M15.14 6.07318C15.549 6.78318 15.886 7.62718 16.129 8.56918C14.9223 8.3518 13.6999 8.2334 12.474 8.21518V3.80518C13.452 3.99518 14.392 4.77518 15.14 6.07318ZM16.344 9.57718C15.0696 9.31934 13.7741 9.18041 12.474 9.16218V14.3642C13.921 14.3362 15.266 14.1812 16.419 13.9342C16.5037 13.3128 16.5463 12.6682 16.547 12.0002C16.547 11.1552 16.476 10.3422 16.344 9.57718ZM11.526 3.80418V8.21418C10.3004 8.23279 9.0783 8.35151 7.872 8.56918C8.114 7.62718 8.452 6.78218 8.86 6.07318C9.608 4.77618 10.548 3.99518 11.526 3.80418ZM11.526 9.16218C10.2259 9.18041 8.93037 9.31934 7.656 9.57718C7.51967 10.3776 7.45175 11.1882 7.453 12.0002C7.453 12.6672 7.497 13.3142 7.581 13.9332C8.734 14.1812 10.079 14.3362 11.526 14.3632V9.16218ZM5.995 10.0322C6.205 9.95885 6.426 9.88885 6.658 9.82218C6.47614 11.1029 6.45531 12.4013 6.596 13.6872C6.386 13.6252 6.18567 13.5609 5.995 13.4942C5.235 13.2252 4.655 12.9172 4.273 12.5982C3.888 12.2772 3.758 11.9932 3.758 11.7632C3.758 11.5332 3.888 11.2492 4.273 10.9282C4.655 10.6092 5.235 10.3012 5.995 10.0332M8.86 17.9282C8.381 17.0962 8 16.0782 7.755 14.9362C8.893 15.1552 10.173 15.2872 11.526 15.3122V20.1972C10.548 20.0062 9.608 19.2262 8.86 17.9282ZM12.474 20.1962V15.3102C13.7394 15.2916 15.0009 15.1658 16.245 14.9342C16.001 16.0772 15.619 17.0942 15.14 17.9262C14.392 19.2232 13.452 20.0052 12.474 20.1962ZM17.494 12.0002C17.494 12.5762 17.464 13.1385 17.404 13.6872C17.614 13.6259 17.8143 13.5615 18.005 13.4942C18.765 13.2252 19.345 12.9172 19.727 12.5982C20.112 12.2772 20.242 11.9932 20.242 11.7632C20.242 11.5332 20.112 11.2492 19.727 10.9282C19.345 10.6092 18.765 10.3012 18.005 10.0332C17.795 9.95918 17.574 9.88885 17.342 9.82218C17.442 10.5222 17.495 11.2512 17.495 12.0002" fill="white"/>
</svg>
